<mxfile host="app.diagrams.net" agent="Mozilla/5.0 (X11; Linux x86_64) AppleWebKit/537.36 (KHTML, like Gecko) Chrome/132.0.0.0 Safari/537.36" version="26.0.9">
  <diagram name="Pagina-1" id="zvDUi1DKr4jtJYDN1N0J">
    <mxGraphModel dx="1010" dy="587" grid="1" gridSize="10" guides="1" tooltips="1" connect="1" arrows="1" fold="1" page="1" pageScale="1" pageWidth="827" pageHeight="1169" math="0" shadow="0">
      <root>
        <mxCell id="0" />
        <mxCell id="1" parent="0" />
        <mxCell id="1NS72QjBbzk_5VB2hoYN-12" value="" style="edgeStyle=orthogonalEdgeStyle;rounded=0;orthogonalLoop=1;jettySize=auto;html=1;" edge="1" parent="1" source="1NS72QjBbzk_5VB2hoYN-1" target="1NS72QjBbzk_5VB2hoYN-11">
          <mxGeometry relative="1" as="geometry" />
        </mxCell>
        <mxCell id="1NS72QjBbzk_5VB2hoYN-1" value="start" style="ellipse;whiteSpace=wrap;html=1;" vertex="1" parent="1">
          <mxGeometry x="370" y="40" width="120" height="80" as="geometry" />
        </mxCell>
        <mxCell id="1NS72QjBbzk_5VB2hoYN-7" value="" style="edgeStyle=orthogonalEdgeStyle;rounded=0;orthogonalLoop=1;jettySize=auto;html=1;" edge="1" parent="1" source="1NS72QjBbzk_5VB2hoYN-4" target="1NS72QjBbzk_5VB2hoYN-6">
          <mxGeometry relative="1" as="geometry" />
        </mxCell>
        <mxCell id="1NS72QjBbzk_5VB2hoYN-4" value="read x" style="shape=parallelogram;perimeter=parallelogramPerimeter;whiteSpace=wrap;html=1;fixedSize=1;" vertex="1" parent="1">
          <mxGeometry x="370" y="240" width="120" height="60" as="geometry" />
        </mxCell>
        <mxCell id="1NS72QjBbzk_5VB2hoYN-10" value="" style="edgeStyle=orthogonalEdgeStyle;rounded=0;orthogonalLoop=1;jettySize=auto;html=1;" edge="1" parent="1" source="1NS72QjBbzk_5VB2hoYN-6" target="1NS72QjBbzk_5VB2hoYN-9">
          <mxGeometry relative="1" as="geometry" />
        </mxCell>
        <mxCell id="1NS72QjBbzk_5VB2hoYN-16" value="false" style="edgeLabel;html=1;align=center;verticalAlign=middle;resizable=0;points=[];" vertex="1" connectable="0" parent="1NS72QjBbzk_5VB2hoYN-10">
          <mxGeometry x="-0.7194" relative="1" as="geometry">
            <mxPoint as="offset" />
          </mxGeometry>
        </mxCell>
        <mxCell id="1NS72QjBbzk_5VB2hoYN-18" value="" style="edgeStyle=orthogonalEdgeStyle;rounded=0;orthogonalLoop=1;jettySize=auto;html=1;" edge="1" parent="1" source="1NS72QjBbzk_5VB2hoYN-6" target="1NS72QjBbzk_5VB2hoYN-17">
          <mxGeometry relative="1" as="geometry" />
        </mxCell>
        <mxCell id="1NS72QjBbzk_5VB2hoYN-19" value="true" style="edgeLabel;html=1;align=center;verticalAlign=middle;resizable=0;points=[];" vertex="1" connectable="0" parent="1NS72QjBbzk_5VB2hoYN-18">
          <mxGeometry x="-0.2655" y="-1" relative="1" as="geometry">
            <mxPoint as="offset" />
          </mxGeometry>
        </mxCell>
        <mxCell id="1NS72QjBbzk_5VB2hoYN-6" value="x &amp;gt; 0" style="rhombus;whiteSpace=wrap;html=1;strokeWidth=1;" vertex="1" parent="1">
          <mxGeometry x="390" y="340" width="80" height="80" as="geometry" />
        </mxCell>
        <mxCell id="1NS72QjBbzk_5VB2hoYN-9" value="end" style="ellipse;whiteSpace=wrap;html=1;" vertex="1" parent="1">
          <mxGeometry x="120" y="1000" width="80" height="80" as="geometry" />
        </mxCell>
        <mxCell id="1NS72QjBbzk_5VB2hoYN-13" style="edgeStyle=orthogonalEdgeStyle;rounded=0;orthogonalLoop=1;jettySize=auto;html=1;entryX=0.5;entryY=0;entryDx=0;entryDy=0;" edge="1" parent="1" source="1NS72QjBbzk_5VB2hoYN-11" target="1NS72QjBbzk_5VB2hoYN-4">
          <mxGeometry relative="1" as="geometry" />
        </mxCell>
        <mxCell id="1NS72QjBbzk_5VB2hoYN-11" value="&lt;div&gt;i = 0&lt;/div&gt;&lt;div&gt;num = 0&lt;/div&gt;&lt;div&gt;somma = 0&lt;/div&gt;" style="whiteSpace=wrap;html=1;" vertex="1" parent="1">
          <mxGeometry x="370" y="150" width="120" height="60" as="geometry" />
        </mxCell>
        <mxCell id="1NS72QjBbzk_5VB2hoYN-21" value="" style="edgeStyle=orthogonalEdgeStyle;rounded=0;orthogonalLoop=1;jettySize=auto;html=1;" edge="1" parent="1" source="1NS72QjBbzk_5VB2hoYN-17" target="1NS72QjBbzk_5VB2hoYN-20">
          <mxGeometry relative="1" as="geometry" />
        </mxCell>
        <mxCell id="1NS72QjBbzk_5VB2hoYN-22" value="true" style="edgeLabel;html=1;align=center;verticalAlign=middle;resizable=0;points=[];" vertex="1" connectable="0" parent="1NS72QjBbzk_5VB2hoYN-21">
          <mxGeometry x="-0.4074" y="4" relative="1" as="geometry">
            <mxPoint as="offset" />
          </mxGeometry>
        </mxCell>
        <mxCell id="1NS72QjBbzk_5VB2hoYN-56" value="" style="edgeStyle=orthogonalEdgeStyle;rounded=0;orthogonalLoop=1;jettySize=auto;html=1;" edge="1" parent="1" source="1NS72QjBbzk_5VB2hoYN-17" target="1NS72QjBbzk_5VB2hoYN-55">
          <mxGeometry relative="1" as="geometry" />
        </mxCell>
        <mxCell id="1NS72QjBbzk_5VB2hoYN-58" value="false" style="edgeLabel;html=1;align=center;verticalAlign=middle;resizable=0;points=[];" vertex="1" connectable="0" parent="1NS72QjBbzk_5VB2hoYN-56">
          <mxGeometry x="-0.8383" y="-2" relative="1" as="geometry">
            <mxPoint as="offset" />
          </mxGeometry>
        </mxCell>
        <mxCell id="1NS72QjBbzk_5VB2hoYN-59" value="false" style="edgeLabel;html=1;align=center;verticalAlign=middle;resizable=0;points=[];" vertex="1" connectable="0" parent="1NS72QjBbzk_5VB2hoYN-56">
          <mxGeometry x="0.154" y="-4" relative="1" as="geometry">
            <mxPoint as="offset" />
          </mxGeometry>
        </mxCell>
        <mxCell id="1NS72QjBbzk_5VB2hoYN-17" value="i&amp;lt;=10" style="rhombus;whiteSpace=wrap;html=1;strokeWidth=1;" vertex="1" parent="1">
          <mxGeometry x="550" y="430" width="80" height="80" as="geometry" />
        </mxCell>
        <mxCell id="1NS72QjBbzk_5VB2hoYN-20" value="read num" style="shape=parallelogram;perimeter=parallelogramPerimeter;whiteSpace=wrap;html=1;fixedSize=1;" vertex="1" parent="1">
          <mxGeometry x="420" y="525" width="120" height="60" as="geometry" />
        </mxCell>
        <mxCell id="1NS72QjBbzk_5VB2hoYN-28" value="" style="edgeStyle=orthogonalEdgeStyle;rounded=0;orthogonalLoop=1;jettySize=auto;html=1;" edge="1" parent="1" source="1NS72QjBbzk_5VB2hoYN-23" target="1NS72QjBbzk_5VB2hoYN-27">
          <mxGeometry relative="1" as="geometry" />
        </mxCell>
        <mxCell id="1NS72QjBbzk_5VB2hoYN-29" value="True" style="edgeLabel;html=1;align=center;verticalAlign=middle;resizable=0;points=[];" vertex="1" connectable="0" parent="1NS72QjBbzk_5VB2hoYN-28">
          <mxGeometry x="-0.033" y="-1" relative="1" as="geometry">
            <mxPoint as="offset" />
          </mxGeometry>
        </mxCell>
        <mxCell id="1NS72QjBbzk_5VB2hoYN-44" value="" style="edgeStyle=orthogonalEdgeStyle;rounded=0;orthogonalLoop=1;jettySize=auto;html=1;" edge="1" parent="1" source="1NS72QjBbzk_5VB2hoYN-23" target="1NS72QjBbzk_5VB2hoYN-43">
          <mxGeometry relative="1" as="geometry" />
        </mxCell>
        <mxCell id="1NS72QjBbzk_5VB2hoYN-45" value="false" style="edgeLabel;html=1;align=center;verticalAlign=middle;resizable=0;points=[];" vertex="1" connectable="0" parent="1NS72QjBbzk_5VB2hoYN-44">
          <mxGeometry x="-0.1222" y="3" relative="1" as="geometry">
            <mxPoint as="offset" />
          </mxGeometry>
        </mxCell>
        <mxCell id="1NS72QjBbzk_5VB2hoYN-23" value="num % 2 == 0" style="rhombus;whiteSpace=wrap;html=1;strokeWidth=2;" vertex="1" parent="1">
          <mxGeometry x="410" y="655" width="140" height="80" as="geometry" />
        </mxCell>
        <mxCell id="1NS72QjBbzk_5VB2hoYN-38" value="true" style="edgeStyle=orthogonalEdgeStyle;rounded=0;orthogonalLoop=1;jettySize=auto;html=1;" edge="1" parent="1" source="1NS72QjBbzk_5VB2hoYN-27" target="1NS72QjBbzk_5VB2hoYN-37">
          <mxGeometry relative="1" as="geometry" />
        </mxCell>
        <mxCell id="1NS72QjBbzk_5VB2hoYN-27" value="num &amp;gt; x / 2" style="rhombus;whiteSpace=wrap;html=1;strokeWidth=1;" vertex="1" parent="1">
          <mxGeometry x="440" y="800" width="80" height="80" as="geometry" />
        </mxCell>
        <mxCell id="1NS72QjBbzk_5VB2hoYN-40" style="edgeStyle=orthogonalEdgeStyle;rounded=0;orthogonalLoop=1;jettySize=auto;html=1;entryX=1;entryY=0.25;entryDx=0;entryDy=0;" edge="1" parent="1" source="1NS72QjBbzk_5VB2hoYN-37" target="1NS72QjBbzk_5VB2hoYN-20">
          <mxGeometry relative="1" as="geometry">
            <Array as="points">
              <mxPoint x="590" y="980" />
              <mxPoint x="590" y="541" />
            </Array>
          </mxGeometry>
        </mxCell>
        <mxCell id="1NS72QjBbzk_5VB2hoYN-37" value="somma = somma + num" style="whiteSpace=wrap;html=1;" vertex="1" parent="1">
          <mxGeometry x="420" y="950" width="120" height="60" as="geometry" />
        </mxCell>
        <mxCell id="1NS72QjBbzk_5VB2hoYN-39" value="false" style="edgeStyle=orthogonalEdgeStyle;rounded=0;orthogonalLoop=1;jettySize=auto;html=1;" edge="1" parent="1" source="1NS72QjBbzk_5VB2hoYN-27">
          <mxGeometry relative="1" as="geometry">
            <mxPoint x="590" y="840" as="targetPoint" />
            <Array as="points">
              <mxPoint x="570" y="840" />
              <mxPoint x="570" y="840" />
            </Array>
          </mxGeometry>
        </mxCell>
        <mxCell id="1NS72QjBbzk_5VB2hoYN-46" style="edgeStyle=orthogonalEdgeStyle;rounded=0;orthogonalLoop=1;jettySize=auto;html=1;entryX=0;entryY=0.25;entryDx=0;entryDy=0;" edge="1" parent="1" source="1NS72QjBbzk_5VB2hoYN-43" target="1NS72QjBbzk_5VB2hoYN-20">
          <mxGeometry relative="1" as="geometry">
            <Array as="points">
              <mxPoint x="300" y="544" />
            </Array>
          </mxGeometry>
        </mxCell>
        <mxCell id="1NS72QjBbzk_5VB2hoYN-47" value="false" style="edgeLabel;html=1;align=center;verticalAlign=middle;resizable=0;points=[];" vertex="1" connectable="0" parent="1NS72QjBbzk_5VB2hoYN-46">
          <mxGeometry x="-0.5435" y="1" relative="1" as="geometry">
            <mxPoint as="offset" />
          </mxGeometry>
        </mxCell>
        <mxCell id="1NS72QjBbzk_5VB2hoYN-49" value="" style="edgeStyle=orthogonalEdgeStyle;rounded=0;orthogonalLoop=1;jettySize=auto;html=1;" edge="1" parent="1" source="1NS72QjBbzk_5VB2hoYN-43" target="1NS72QjBbzk_5VB2hoYN-48">
          <mxGeometry relative="1" as="geometry" />
        </mxCell>
        <mxCell id="1NS72QjBbzk_5VB2hoYN-51" value="true" style="edgeLabel;html=1;align=center;verticalAlign=middle;resizable=0;points=[];" vertex="1" connectable="0" parent="1NS72QjBbzk_5VB2hoYN-49">
          <mxGeometry x="-0.0778" y="3" relative="1" as="geometry">
            <mxPoint as="offset" />
          </mxGeometry>
        </mxCell>
        <mxCell id="1NS72QjBbzk_5VB2hoYN-43" value="num &amp;lt; x / 2" style="rhombus;whiteSpace=wrap;html=1;strokeWidth=1;" vertex="1" parent="1">
          <mxGeometry x="260" y="655" width="80" height="80" as="geometry" />
        </mxCell>
        <mxCell id="1NS72QjBbzk_5VB2hoYN-50" style="edgeStyle=orthogonalEdgeStyle;rounded=0;orthogonalLoop=1;jettySize=auto;html=1;entryX=0;entryY=0.25;entryDx=0;entryDy=0;" edge="1" parent="1" source="1NS72QjBbzk_5VB2hoYN-48" target="1NS72QjBbzk_5VB2hoYN-20">
          <mxGeometry relative="1" as="geometry">
            <Array as="points">
              <mxPoint x="220" y="855" />
              <mxPoint x="220" y="543" />
              <mxPoint x="434" y="543" />
            </Array>
          </mxGeometry>
        </mxCell>
        <mxCell id="1NS72QjBbzk_5VB2hoYN-48" value="somma = somma + num" style="whiteSpace=wrap;html=1;" vertex="1" parent="1">
          <mxGeometry x="230" y="825" width="140" height="60" as="geometry" />
        </mxCell>
        <mxCell id="1NS72QjBbzk_5VB2hoYN-57" style="edgeStyle=orthogonalEdgeStyle;rounded=0;orthogonalLoop=1;jettySize=auto;html=1;entryX=1;entryY=0.5;entryDx=0;entryDy=0;" edge="1" parent="1" source="1NS72QjBbzk_5VB2hoYN-55" target="1NS72QjBbzk_5VB2hoYN-9">
          <mxGeometry relative="1" as="geometry" />
        </mxCell>
        <mxCell id="1NS72QjBbzk_5VB2hoYN-55" value="write somma" style="shape=parallelogram;perimeter=parallelogramPerimeter;whiteSpace=wrap;html=1;fixedSize=1;" vertex="1" parent="1">
          <mxGeometry x="660" y="1010" width="120" height="60" as="geometry" />
        </mxCell>
        <mxCell id="1NS72QjBbzk_5VB2hoYN-64" style="edgeStyle=orthogonalEdgeStyle;rounded=0;orthogonalLoop=1;jettySize=auto;html=1;entryX=0.5;entryY=0;entryDx=0;entryDy=0;" edge="1" parent="1" source="1NS72QjBbzk_5VB2hoYN-61" target="1NS72QjBbzk_5VB2hoYN-23">
          <mxGeometry relative="1" as="geometry">
            <Array as="points">
              <mxPoint x="480" y="650" />
              <mxPoint x="480" y="650" />
            </Array>
          </mxGeometry>
        </mxCell>
        <mxCell id="1NS72QjBbzk_5VB2hoYN-61" value="i = i + 1" style="rounded=0;whiteSpace=wrap;html=1;" vertex="1" parent="1">
          <mxGeometry x="430" y="605" width="90" height="30" as="geometry" />
        </mxCell>
        <mxCell id="1NS72QjBbzk_5VB2hoYN-63" style="edgeStyle=orthogonalEdgeStyle;rounded=0;orthogonalLoop=1;jettySize=auto;html=1;entryX=0.556;entryY=0.022;entryDx=0;entryDy=0;entryPerimeter=0;" edge="1" parent="1" source="1NS72QjBbzk_5VB2hoYN-20" target="1NS72QjBbzk_5VB2hoYN-61">
          <mxGeometry relative="1" as="geometry" />
        </mxCell>
      </root>
    </mxGraphModel>
  </diagram>
</mxfile>
